<svg xmlns="http://www.w3.org/2000/svg" width="960" height="630" viewBox="0 0 1920 1260">
  <defs>
    <style>
      .cls-1 {
        fill: red; /* Ubah warna menjadi merah */
        stroke: black; /* Tambahkan garis tepi hitam */
        stroke-width: 2;
        fill-rule: evenodd;
      }
    </style>
  </defs>
  <!-- Path Animasi Diturunkan -->
  <path id="Color_Fill_1" data-name="Color Fill 1" class="cls-1" 
    d="M0,150H1920V953H1747q7.005-14,14-28c17.17-55.448-16.38-88.671-44-109-43.52-1.771-72.12,3.96-100,18q-2.505-31-5-62l-75-13-59-2c-47.01-7.164-99.9-3-150-3l-106,2-73,1-59,2-54,12q-2.505,21.5-5,43,3.495,14.5,7,29v50c3.66,20.183,8.85,36.38,9,62-52.973.132-105.623-2.573-155-10l-84,10-90-13-44,12-64-4-147,1c-10.044-2.28-23.381-12.454-36-10l-37,12c-34.356,7.617-65.333-12.961-89-9l-32,8H191l-59,2L95,793l-34,8c-19.448,3.9-43.622,2.237-61,4V150ZM1683,842c28.38,0.647,59.77,37.035,47,74-11.26,32.6-83.27,46.33-128,34,1.99-27.605,13.5-30.3,23-47,13.53-23.79,14.29-44.151,38-57Q1673.005,844,1683,842Z" />
  <!-- Elemen Lingkaran -->
  <circle cx="960" cy="565" r="100" fill="blue" />
  <!-- Elemen Teks -->
  <text x="960" y="150" font-size="48" fill="black" text-anchor="middle">Teks di Atas</text>
</svg>
